<svg id="Capa_1" data-name="Capa 1" xmlns="http://www.w3.org/2000/svg" viewBox="0 0 1332.28 1332.28"><defs><style>.cls-1{fill:#eabc4c;}.cls-2{fill:#a07e2a;}.cls-3{fill:#e9b530;}</style></defs><title>T de toro</title><path class="cls-1" d="M348,459.81c.71.61,1.63-2.26,2-2.69C348.3,457.1,347.67,460.53,348,459.81Z"/><polygon class="cls-1" points="331.5 459.62 332.27 458.64 328.96 460.34 331.5 459.62"/><path class="cls-1" d="M318.94,453.17c-1.18,5.12,4.87,1.72,6.31,4.41l-.15,1.22,2.87-3.16C324.93,454.92,320.18,455.44,318.94,453.17Z"/><path class="cls-1" d="M317.66,440c-.57,1.95-2.21.73,1.18,1.37a4.31,4.31,0,0,1,0-.58A4.15,4.15,0,0,1,317.66,440Z"/><path class="cls-1" d="M318.81,440.76c1.35.55,0-1.91,0,0Z"/><path class="cls-1" d="M312.47,438.45l2.52-.6c.24-1.22-1.09-2.28-.13-2.71C312.71,435,312.46,436.23,312.47,438.45Z"/><path class="cls-1" d="M309,440.77l1.24-.15C310.37,440.11,310.23,439.83,309,440.77Z"/><path class="cls-1" d="M312.89,440.29l-2.62.33c-.17.85-1,2.3,1.13,0C310.5,441.83,311.58,440.78,312.89,440.29Z"/><path class="cls-1" d="M313.54,441.55c.38,1.5,1.26,2.81-1.29,3.39C315.81,446.16,317.06,442.74,313.54,441.55Z"/><path class="cls-1" d="M315.82,457.49l.62,2,1.93-.91C317.41,459.05,316.49,456,315.82,457.49Z"/><path class="cls-1" d="M303.68,430.15c-.67.86-1,2.79-1.58,4.05l1.85-.32C303.72,432.86,302.92,431.57,303.68,430.15Z"/><path class="cls-1" d="M302.1,434.2l-2.78.48C300.82,435.86,301.58,435.28,302.1,434.2Z"/><polygon class="cls-1" points="305.89 445.5 310.9 443.86 305.27 445.21 305.89 445.5"/><polygon class="cls-1" points="297.05 425.8 299.39 424.34 295.58 426.36 297.05 425.8"/><path class="cls-1" d="M292.43,423.26c1.88-1.25,1-3.58,2.46-4.13-1.37-.48-3.39.35-5.21,1.05C291.15,420.1,292.05,421,292.43,423.26Z"/><path class="cls-1" d="M286.86,421a13.31,13.31,0,0,0,2.82-.84A6.6,6.6,0,0,0,286.86,421Z"/><path class="cls-1" d="M296.54,432.33c.21-.63.86-2.24.28-3.5l-1,3Z"/><path class="cls-1" d="M295.83,432l0-.1-1.4-1.14Z"/><path class="cls-1" d="M296.71,432.46l-.17-.13C296.44,432.63,296.43,432.74,296.71,432.46Z"/><path class="cls-1" d="M302.45,440.26c-1.94.81-5.16,1-4.33,4.55C300,443.5,299.51,441.47,302.45,440.26Z"/><path class="cls-1" d="M295.55,436.22l1.56,1.78c.39-.7.67-1.91,1.64-2.31Z"/><polygon class="cls-1" points="294.08 436.46 295.55 436.22 294.97 435.56 294.08 436.46"/><path class="cls-1" d="M288.35,425.54a4,4,0,0,1-3.59-.47,8.23,8.23,0,0,0,2.67,2.95C288.12,427.32,289.55,426.2,288.35,425.54Z"/><path class="cls-1" d="M291.83,428.87l-.28,0C291.52,429.18,291.56,429.31,291.83,428.87Z"/><path class="cls-1" d="M275.28,418.15c-.06.17-.13.37-.19.56l.35-.4Z"/><path class="cls-1" d="M287.29,428.61c.48,1,1.38.72,2.36.24a6.38,6.38,0,0,1-2.22-.83C287.12,428.33,287,428.56,287.29,428.61Z"/><path class="cls-1" d="M283.4,420.29a11.11,11.11,0,0,0,.37,2.33C283.93,421.55,284,419.75,283.4,420.29Z"/><path class="cls-1" d="M291.75,428l.2,0C292.05,427.26,291.9,427.55,291.75,428Z"/><path class="cls-1" d="M291.75,428a8.77,8.77,0,0,0-2.1.84,5.06,5.06,0,0,0,1.9,0A4.84,4.84,0,0,1,291.75,428Z"/><path class="cls-1" d="M260.46,431.44c1.89-2.12,5.56-2.57,5.54,1.26,3.12-.37,7.4-8.68,9.09-14-.8.94-1.48,1.85-4.25,1.8-.34,1.7,1.75,6-1.29,6.83-3.27-.7-1.35-2.33-1.59-4.41-1.16,3.57-6.18,1.68-8.88,6.15l3.26.23C261.89,430,260.32,430.39,260.46,431.44Z"/><path class="cls-1" d="M278.31,421.44l.95.25c-.55-1-.49-2.35-.26-4.92a5.1,5.1,0,0,0-3.56,1.54c1.08,1.05,2.25,2,3.37,3Z"/><path class="cls-1" d="M282.58,424.07c-2.35,2.1-4.93,1.85-5.76,5.36,2.34,1.42,3-1,5.12-1.12-4-1.93,2-.68.47-3.94a6.15,6.15,0,0,1,2.35.7,11.53,11.53,0,0,1-1-2.45l0,.22h0l0,0c-.07.42-.16.64-.2.34,0,0-.11,0-.11,0a6.5,6.5,0,0,1-.83.83c-.64-1.24.31-.76.83-.83l.31-.34v0l-4.48-1.15C279.75,422.57,280.73,423.17,282.58,424.07Z"/><path class="cls-1" d="M292.63,449.2a1.44,1.44,0,0,1,.25-.68C292.43,448.68,292.2,448.84,292.63,449.2Z"/><path class="cls-1" d="M292,446.64c.51-.19,1.39-1.09,2.13-.26.3,1.27-.78,1.25-1.27,2.14,1-.36,3.07-.71,2.14-3l-.49.19c-1-1.85-.9-6.3-.41-6.49A29.3,29.3,0,0,0,292,446.64Z"/><path class="cls-1" d="M286.5,435.94l-3.92-.79.08,3.26.82-1.39C284.89,438.72,285.6,436.82,286.5,435.94Z"/><polygon class="cls-1" points="275.88 416.68 278.22 414.37 273.82 416.76 275.88 416.68"/><polygon class="cls-1" points="272 414.13 273.88 412.01 271.86 412.61 272 414.13"/><path class="cls-1" d="M196.05,161.5l.83-2.2A10.89,10.89,0,0,0,196.05,161.5Z"/><path class="cls-1" d="M189.26,169.75l.31,1.91C189.6,170.33,189.55,169.47,189.26,169.75Z"/><path class="cls-1" d="M203.62,327.82c1.93-2.34,5.21-5.22,2.29-3.95l-2.74,1.49A1.88,1.88,0,0,1,203.62,327.82Z"/><path class="cls-1" d="M174.48,253.08l-1,.39,2.9,1.34C175.78,254.29,175.1,253.7,174.48,253.08Z"/><path class="cls-1" d="M161.86,250.68l2.27-2.07A7.76,7.76,0,0,0,161.86,250.68Z"/><path class="cls-1" d="M230,142.23c.79-1.4,1.58-2.71,2.39-3.95C231.36,133.59,230.9,139.2,230,142.23Z"/><path class="cls-1" d="M236.92,382.7a6.3,6.3,0,0,0-.73-3.64C235.87,381.37,234.71,384.09,236.92,382.7Z"/><path class="cls-1" d="M202.77,213.75a23.14,23.14,0,0,0-.37-3.61A14.86,14.86,0,0,0,202.77,213.75Z"/><path class="cls-1" d="M233.84,376.19a7.28,7.28,0,0,0-.14,1,4.79,4.79,0,0,1,2.49,1.87C236.42,377.35,236.3,375.8,233.84,376.19Z"/><path class="cls-1" d="M320.63,298c0,.17.08.29.08.48C321,298.18,320.85,298.09,320.63,298Z"/><path class="cls-1" d="M347.72,346.46a6.35,6.35,0,0,1-2-.46C346,346.36,346.57,346.52,347.72,346.46Z"/><path class="cls-1" d="M258.67,401.2c.84.51.34-.15,0,0Z"/><path class="cls-1" d="M254.17,413.57a2.94,2.94,0,0,0-1.3.87A3.81,3.81,0,0,1,254.17,413.57Z"/><path class="cls-1" d="M212.47,380.24l0-.08C212.12,380.77,212.18,380.66,212.47,380.24Z"/><path class="cls-1" d="M258.8,403.24a4.89,4.89,0,0,0-.3-1.53A4.45,4.45,0,0,0,258.8,403.24Z"/><path class="cls-1" d="M259.63,402a5.1,5.1,0,0,0,.43.79C260.5,402.5,260.61,402.2,259.63,402Z"/><path class="cls-1" d="M257.56,400.4a3.17,3.17,0,0,1,.94,1.31c0-.29.06-.47.17-.51Z"/><path class="cls-1" d="M257.72,248.21a2.36,2.36,0,0,1-.12.34C259.24,248.63,258.82,248.39,257.72,248.21Z"/><path class="cls-1" d="M165.05,311.59c0,.05.12.06.17.1l.07-.19Z"/><path class="cls-1" d="M161.88,308.12c4.16.91,3.91,1.92,3.41,3.38l8.43-3.22Z"/><path class="cls-1" d="M213.79,140.21a21.21,21.21,0,0,0-2.35-1.55c3.7-10.81,6.27-11.28,4-14.58-.88,8.13-3.58,11.44-6.28,14.75s-5.33,6.56-5.17,13.63l-1.67-1.13c.46-.38.49-1.28.95-1.65-3.53-3-1.68,12.46-5.31,14.69-1.36.47-2.58-.31-1.9-2.87-.86,2.17-1.59,4.39-2.26,6.59-.82.77-1.09-1.61-.23-2.41l-3.93,6.37-.06-.39c-.1,2.65-.48,7.16-.64,9.14-1.52-.34.06-1.87-.65-3-.4,1.92-.82,3.71-1.09,5.66-1.95-1.59-1.36-7.09.46-8.65-3-4.34-3.37-2.93-3.67-.55-.32,2.58-.43,5.91-4.13,6.52l1.51-4.78c-4.18-3.71-5,1.3-9.81,2.21.9.34,3.6.3,5.71,1.22a5,5,0,0,1,3.27,5.82c-1,.29-2.16,1.44-2.15,5.31-2.12-3.23-3-.58-4.07,2.63l-3.05-4.15c-.64,4.55,1.17,6.15,1.87,9.59-1.82,3-4.93,1.35-7.73.29-1.74,2.92-.06,2.69,1.65,2.85s3.44.71,2.35,4.25c-3.52,3.55-3.11,8.56-2.17,15.23-2.46,2.85-2.53-1.29-4.12-.5a23.81,23.81,0,0,0,2.85,3.28c-.24.5-1.28,0-1.8-.17.9,2.16,4.28,1.27,4.89,4.37,4.76,1.8-8.39,4.26-3.51,8.95-1.45.65-2.67-.91-4.47-1,2.71,5.54,2,4.73,6.46,9.36l-3.4,3c3.72-2.09,7.35,1.57,10.35,4.47,1.75-.69,3.28-1.24,4-1.63.63,1.44,1.27,2.87,2.05,4.29-.77.43-2.31-.09-4.18-.93.36.31.72.61,1.05.85-1.76,1.35-4.35.42-6.84-.89l2.89-1.3c-2.64-1.28-5.57-2.6-8.26-2.64a2.89,2.89,0,0,1,1.05,1.56,3.25,3.25,0,0,0-1.83-.5c-.49.1.42.66,1.56,1.48l-5.13.6,2,.41-3.49,5.73c4.8,4.54,12.39,8.14,14.66,14.29-3.76-1.45-6.1-.16-10.52-.1,4.64-1.9-2.1-5.08-1.21-8.58-.46,1.79-2.58,1.39-3.32.91l4.38,6.17c-3.62-.05-2.69,1.38-4.15,3.07,7.11-1.48,4.83,4.39,7.36,6.68-2.38.33-4.88-.08-4.58-3.18-5.07,3.78,8.77,3.71,4.5,7.29-.13-.73.2-1.15-1-1.33,2.28,1.5,1,5.83-1.19,5.1l-.11-.73c-.41,5,2.24,14.94,8.24,14.42a79.08,79.08,0,0,1-8.55.7c7.23,1.64,14.63,2.94,21.83,4-5.26.44-16.67,6.25-20.47,2.91-.45,1.31-1,3,1.4,5,.53-1,6.87-3.77,7.57-2.84-4.93,4.3-2.64,2.75-6.31,7.63.72-1.46,9-2.39,9.27-.59-1.26.07-7.7,2.44-8.72,2q4.55,1.17,9,2.14c-1.72-.66-6.56,1.84-8.4,3.58,1.37-1,1,4,2.33,5l1.05-2.51c.76,5.49,12.49,1,13.87,5.83-1.75.08-10,2.35-10,5.27,4.19-.28,20.39-2.87,24.92-.61l-1.78,1.74,3.75,1.7c-6.28,1.16-20.59,1.36-26.77.08-.85,2.59-2.31,1.62-.81,4.32-1.54,1.91-3.76-.15-4.27-.94l1.81,7.23c4.21-2.38,6.65,2.9,10.15.74-2.63-1.48-5.17-3.11-7.8-4.76,4.31-2.27,14-1.81,15.54,2.63-1.1,2-8,3.2-9.38,4,1.78-.19,5,2.61,4.23,3.57l-3.26-.61c-.22,3.34,7.72.81,5.34,6,.27,1.14-3.49,6.1-1,4.81,3.66-4.47,18.07-13.38,22.18-14.58-.14.47-1.57,7.31-3.17,9.85-2.63,3.87-10,3.28-12.33,6.56a7.42,7.42,0,0,1,3.71-.59c-.31,1.61-3.67,1.8-1.79,3.66,4.23-2.3,2.61,4.51,4.07-1.27,2.57,1.25.7,2.71,2.57,5,2.05-2.55,10.23-4.11,12.69-3.06a9.19,9.19,0,0,0-2.5,2.68c2.58,4.18,2.6,7.56,5.44,11.23-.65,1.09-.3,3.75-2.52,4.36,1.11,0,2.78-.65,3.82.35-1.32,4.85-2.64-2-5.06,2.9,2.28-1.7,5.47.28,8.14.63,2.84-3.39-2.49-4.06-5.22-4.48,4.61-3.89,11.73-5.38,16.82-3.84,3.53,1.71-1.8,3.83-.75,3.72,4.08,5.8,11.66-3.1,12.49,4-1.11,4.35-5.27,5.54-6.86,7.87-3.18-1.17-1.57-5.09-3.12-6.44l.49,3.09c-1.59.2-3.73-.6-3.71-2.17-1.13,3.85,7.92,9.05,9.91,15,1.59-.27,3.72-.12,4.17-1.81l-1.63-.78c.93-3.36,5.24-1,4.63-3.52,3.1,0,7.28-1,8.55,2.37l-2.39,3.73c.78-1,.11-3.34-1.45-2.91,2.26-.63-.08,7.71,4.73,4.27l.25-3.77c3.15-.21,8.14-2,9.48.73,1.72-4.15-.82,0,.83-5.15-2.72,6-5.15-4.72-7.33,2.12,2.26-5.79-1.05-4.16.27-9.61-.89,1.14-1.12,2.67-2.39.66a7.4,7.4,0,0,1-1.22.62,1.29,1.29,0,0,1,0-.19l0,.22c-.21.09-.25.12,0,.07a5.22,5.22,0,0,1-.57,2.41c-3.1,1.77-5.7-.88-7.8-.46-.56-1.45,1.55-.83,2-2.47l-3.12.6c2-2.48,1-6.34,4.63-5.53L252,396c0-2.43-1-4.61-3-4.65-.43-1.44-4.92.06-2.3-.86l-4.58-1.83.56-.58c-2.56-3.53-10.19-3.27-8.93-10.92-1.55-.64-3.28-1.23-4.12-3.73l1.88-2.08c-2-.86-1.18-6.13-4-5.07,4.89-6-3.93-8.2-4.47-11.79l-3.12,1.84c-1-2-3.12-3.27-5.79-5l-2.68,1.77c-3.49-.88-1.11-6.73-3.27-9.93,1.22-.33,1.41.67,1.1,1.63,4.25-7.25-8.93-6.44-6-12.46-1.44-.51-1.35-1.38-.86-2.36a.35.35,0,0,0,.25.18,1.65,1.65,0,0,0-.12-.41c.35-.63.78-1.31,1.07-2a6.66,6.66,0,0,0-1.16,1.76,7.32,7.32,0,0,0-2.33-2.53l3-1.69c-.08-.07-.1-.14-.19-.21.78-1.51-1.87-.31-4.07,1.18a7.83,7.83,0,0,0-2.52-.78c4.86-2.74-2.91-2.38,2.37-5.54-3,.13-3.82-5.08-9.87-4.06.75-.26,1-.71,1.25-.08.29-1.53.46-3-1.42-3.76l4.1-1.67-6.38-1.5c2.17-2.44,3.52-3.46,7.2-2.5-6-3.05-2.74-2.92-8.51-5.57l2.81-.35c-.31-1.27-4.38-2.74-2.21-3.94,4.7-3.69-1.41-14.77,3.48-22.53-8.29,1.7,3.67-3.55-2.79-3.71,2-.46,3-1.48,4.78-.31-2.09-3.79,3.13-5.49-2.17-8.26,2-.34,2.84.92,4,.59-.41-.31-1.65-1.25-.45-1.58s1.62.62,2.45,1.23c-.14-3.69-6.18-4.51-11.85-5.22,2.76-1.83,2.47-2.79-1-4.63,1.94-.52,4-1.44,4.38,1,.46-1.37,3.75-7.88-.75-8.72,1.2-.25.56-1.87.16-2.31.89-3,1.35-3.17,1.54-6.24l-.9.67c-5.14-2.33-.68-2.78-.84-5.36l.54.21c2.66-2.21,2.44-3,2.14-3.51s-.42-1.2,2.17-2l-3.2-1.27c-3.33-1.74-2-2.5-.15-2.87s4.26-.14,3.49-2.24c-.64-.2-1.28-.38-1.94-.52-.78-1.56,1.68-.84,4.27.79s5.34,4.06,5.79,4.19a5.13,5.13,0,0,1,1,1.75c3.78,2.61-3.33-4.28-3.33-7,1.8,2.26,4.18,6.56,4.8,6.39.73.91-.39-1.61-1-4.34s-.82-5.61.74-2.9c-1.07-2.43-2.3-4.57-2.49-7.41.25-1.16,1.62.54,2.49,1.6s1.36,1.29.75-4.31a15.14,15.14,0,0,1,.59,2.32c0-3.44,1.34-7.26,1.41-14.24,1.29,11.09,1.72,7.18,2.95,2.53s2.73-9.9,1.86,2.76l1.13-1.86c.36-.54.87-1.64.89-.93l-.32,2.6c.16,3.52,1.07-1.82,2.11-6.57a43,43,0,0,1-.74,5.16c0,4.07-.06,5.6.32,5.27s1.1-2.5,2.63-5.64l-1.4,6.55c.54-1.44.3,2.24.13,5.3s-.33,5.5,1.36,4.2a12.12,12.12,0,0,1-1,1.74c1.7-1.15,1,3.76.43,6.14s-.23,3.61,5-.4a20.23,20.23,0,0,1,3.7.53c-.39-2.12.75-3,2.19-3.54s3.21-.72,3.64-2.39c1.55,1.62-1.21,6.87-2.7,5.13l.4-.68c-3,1.6-2.95,3.1-2.73,4.42.08,1.12,1.14,3.14-1,4,5.31,9.79,7.65,21.15,13.47,30.17l3.61-3.93,1.87,3.13c-.44,1.47-2.59,3.4-3.95,1.13-1.61,2.83,4.6,2.17,5.55,1.54,1.28,5.42-6.1,1.94-5.3,3.28l1.59,1.54.2-.76c2.75.17,4.65-1.06,6.28,1.64.32,2.25-1.95,2.78-1.63,3.53-.3.22-.26.54.65,1l2.63,3.9,2-4c2.88.3,2.57,3.46,4.85-1.11-1.8,3.43.38,7.24,3.09,10.37s6,5.52,5.84,7c4.14,0,5.91,2.1,8.26,4.67,0-1.21,2.83-4.87,4.58-2.48-7.39,6.2,1.11,6.71-1.68,13.5.71-2.45,2.48-1.18,4.3-.24s3.8,1.43,4.58-2.11c1.43,2.16-2.2,2.83-2.17,5.76,7,.94,8.82,10.33,15.9,13.55.8-1,.89-3.26,3.25-3.88l-.3,7.46c1.59.32,5-5.21,5-.18.25-1.09.63-2.72,1.69-2.55,4.56,6.32,11.59,9.3,18.57,12,6.84,3.09,13.6,5.78,18.46,14.1-1-3.06.35-2.76,1.8-2.25-.72-.93,1.13-2.89,1.55-4.55,1.35,2.2,2.79,4.29,4.24,6.46,2.61-4.11,6.46,1.83,8.43-2.27l-2.09.15c4-4.28.29-12.4,2.9-18.74-4.6,4.81-3.49-10.48-10.48-4.19-.35-1.66,1.57-1.72,1.69-3.39-2.08,2.3-3.56,2.34-5.29.18l.54-.56c-6.65-1.85-7.94-6.13-13.75-11.15l-1.1,3.23c-1.25-1.14-1.05-2.23-1.31-3.31-4.17,3.63,3.95,2.33-.26,6.53,1.24-6.81-10.11-6.05-7.31-13.41-2.11-1.31-1.45,3.7-3.58,2.37l.57-2.13-2,2c-1.2-1.21-.36-4,.56-5.49.21.4,1.19.24,1.63.34-.34-3.28-5.31-2.7-5.46-3.79l1.21,2.44c-3.31-1.17-6.38-3.41-9.4-5.62s-6.09-4.33-10.08-4.79l-.64,1.54c-5.94-1-1.92-4.05-7-6.79l.41-.14a4.57,4.57,0,0,1-4.59-1.24c2.33-.38.57-4.42,3.37-4.64-6.22-1.52-3.64-.12-10.48,1.38l1.32-2.47c-2.6.74-3.59,1.53-6.08-.11,3.28.16,1.72-4.06,5.71-4.21.24-8-10.29-2.65-5.55-10.24-7.35,2.6.14,6.58-2,6.42-1,2.58-5.61,1.81-6.27-.16-1.13-1.62,5.16-8.48,2.09-12,.27.38.73.06,1,.44.33-2.44-4.06-1.24-2.91-4.78-4.28,1.63-1.41-2.42-6.21.59l3.6,2.79c-2.6-1.1-9.39.79-9.2-4.46a10.72,10.72,0,0,1,4.26,0c.67-1.93-2.26-1.26-1.57-3.23,4.88-2.9,4.11,3.62,9.13,3.22,1.22-2.4-6.2-1.62-.44-4.1-7.44,2.89-2-4.15-8.49-3.6l2.95-1.68c-.71-.13-2.6-.14-3-1l4.57-1c-4.5-.15.23-5.86-2.76-6.81,2.74,4.22-2.9,3.08-3.86,6.22-7.17-3.18,5.44-7.55.87-12.82.85.58-.14,4.11-2.19,3.58a8.74,8.74,0,0,1,1.5-5.26c-2.77-3.73-2.75,2.26-5.51,1.5,2.92-3.32-2.55-1.24-4.72-2.5l3.07-1.56c-.23-2.75-2.06-2.46-3.8-2.17s-3.31.94-3.48-3a47.24,47.24,0,0,1,5.36.41l-2.59-3.07,3.69-1.41c-4.22-2.66-4-4.13-4.83-9.18-1.55,2.77-5.18,4.19-6.55,1.19.68-4.13,2.91-1.25.79-6.19,1.87-.64,4.5-1.64,3,3.27.95-.72,2.12-.65,3.09-1.28a9.49,9.49,0,0,0-1.07-5.85c-.67-1.93-1.48-3.53-1.8-4.74a11.44,11.44,0,0,1,.07,3.5,25.43,25.43,0,0,0-5.76-3.91c.55-3,1.55-3.25,2.56-3.3-.74-1.48-2.17-.73-3-2.93,2.09-3.16,4-7.44,6-4.59a60.16,60.16,0,0,0-4.48-5.52c.67-2.38,1-10.31,2-10.69a9.44,9.44,0,0,0-3.45-7.5c-1.62-1.55-3.14-2.76-3.33-9-.39.8-.84,1.17-1.4.52-.61-4.67-.86-12-1.46-16.64-.83,0-2,1.55-3.73,5.78q.27-5.46.28-10.12c-1.34,2.18-1.24,4.87-1.48,8.28s-.76,7.38-2.46,9.4c-2.42,3.2.32-8-.17-10.12-.43,1.27-1,2.84-1.51,4.45s-1.53,3.88-2.29,5.49c-1.59,3.36-3.11,5.4-4.62,4C211.9,141.73,212.71,141.94,213.79,140.21Zm-33.17,45c.13-1.64.15-5.94,1.61-4.44C183.59,186.13,182.22,184.82,180.62,185.25Zm-13.09,73.26c-1.11-.66-.49-1.55.86-2.48A2.32,2.32,0,0,1,167.53,258.51ZM249,395.93l-.17.07C248.61,393.91,248.63,394.69,249,395.93Zm1.36,3.38a1.59,1.59,0,0,0,1.12-.93c-.77.47-1.36,0-1.82-.75C249.16,398.44,249.05,399.18,250.31,399.31Zm-4.64-128.24.25-1.11C247.74,270.62,246.74,270.81,245.67,271.07Z"/><path class="cls-1" d="M163.31,251a6.74,6.74,0,0,1,1.91-.16A1.44,1.44,0,0,0,163.31,251Z"/><path class="cls-1" d="M229.52,143c0,.13,0,.21,0,.34a9.59,9.59,0,0,0,.4-1.12Z"/><path class="cls-1" d="M193,376.07a3.94,3.94,0,0,1,.7-2.23A1.61,1.61,0,0,0,193,376.07Z"/><path class="cls-1" d="M267.28,406.59l-2.18-.68c.89.53.68,1.34.72,2.1C266.3,407.36,266.75,406.21,267.28,406.59Z"/><path class="cls-1" d="M269.1,435.06c.52-.15.6.37,1.12.21l.87-1.34C269.89,433.19,268.32,433.66,269.1,435.06Z"/><path class="cls-1" d="M261.49,416.69c-1.72,2.35,0,2.5,1.52,3a.58.58,0,0,1-.21-.17C265.71,416.64,263.55,416.73,261.49,416.69Z"/><path class="cls-1" d="M263.36,419.85a2.52,2.52,0,0,1,1.17.82C265.68,419.51,264.28,420.05,263.36,419.85Z"/><path class="cls-1" d="M254.72,400.77c0,1,2.83-2.42,2.32-1.28C260.13,397.31,250.58,399.58,254.72,400.77Z"/><polygon class="cls-1" points="256.39 424.89 258.23 421.76 255.73 423.42 256.39 424.89"/><path class="cls-1" d="M248.62,414.82l1.25,2.38a1.32,1.32,0,0,1,1.31-.49C250.08,415.62,249.26,414,248.62,414.82Z"/><path class="cls-1" d="M251.18,416.71a2.14,2.14,0,0,0,1.93.86A4.69,4.69,0,0,0,251.18,416.71Z"/><polygon class="cls-1" points="253.07 423.48 252.98 422.42 251.78 421.06 253.07 423.48"/><path class="cls-1" d="M230,395.4l-2.58-1.35c-1.1.61-1.16,1.67-.12,2.11C228.35,396.08,229.38,396.52,230,395.4Z"/><path class="cls-1" d="M228.63,408.23c0-1.06.53-1.65,1.08-2.78l-3.25,3Z"/><path class="cls-1" d="M222.17,402.94c-1.09.62-5.39-.75-2.75,1.8C220.52,404.14,223.17,405.58,222.17,402.94Z"/><polygon class="cls-1" points="200.91 365.78 201.34 366.35 207.45 362.4 200.91 365.78"/><path class="cls-1" d="M168.12,338.81c-.33,4,4.49-.82,3.63,3,1.9.13.7-3.12,2.39-2.86C171.69,337.63,172.23,336.19,168.12,338.81Z"/><path class="cls-1" d="M174.14,339a8,8,0,0,0,1.42.61A3.74,3.74,0,0,0,174.14,339Z"/><polygon class="cls-1" points="354.32 352.81 356.04 354.98 355.38 352.18 354.32 352.81"/><path class="cls-1" d="M360.06,349l-.84,4.61,2.49-3.59C361.17,350.09,360.12,350.16,360.06,349Z"/><path class="cls-1" d="M170.18,183.89l.63,1.28c1,.51,1.51,0,2.47-1.18A21.37,21.37,0,0,0,170.18,183.89Z"/><polygon class="cls-1" points="197.68 152.66 197.2 153.06 198.68 157.78 197.68 152.66"/><path class="cls-1" d="M222,118.1c-.74.52-1.87,3.17-2.59,3.62C221.29,118.44,220.78,128,222,118.1Z"/><path class="cls-1" d="M1090.15,439.5c-.87.36,1.22,2.52,1.44,3C1092.39,441,1089.63,438.91,1090.15,439.5Z"/><polygon class="cls-1" points="1096.9 424.82 1097.55 425.9 1097.03 422.25 1096.9 424.82"/><path class="cls-1" d="M1106.44,415.39c-4.59-2.6-2.74,4.08-5.74,4.5l-1.1-.55,2.09,3.67C1103.42,420.54,1104,415.86,1106.44,415.39Z"/><path class="cls-1" d="M1119.55,417.3c-1.81-.95-.21-2.34-1.64.9a4.43,4.43,0,0,1,.59.1A4.86,4.86,0,0,1,1119.55,417.3Z"/><path class="cls-1" d="M1118.5,418.3c-.88,1.21,1.9.37,0,0Z"/><path class="cls-1" d="M1122.07,412.33l.12,2.64c1.16.44,2.48-.76,2.73.29C1125.46,413.07,1124.28,412.67,1122.07,412.33Z"/><path class="cls-1" d="M1120.34,408.57l0,1.24C1120.78,410,1121.09,409.88,1120.34,408.57Z"/><path class="cls-1" d="M1120.17,412.45l.12-2.64c-.81-.3-2.11-1.33-.17,1.11C1119.06,409.83,1119.92,411.07,1120.17,412.45Z"/><path class="cls-1" d="M1118.81,412.88c-1.54.13-2.94.73-3.07-1.88C1113.91,414.2,1117,416.19,1118.81,412.88Z"/><path class="cls-1" d="M1103,411.32l-2-.05.43,2C1101.24,412.29,1104.27,412.34,1103,411.32Z"/><path class="cls-1" d="M1131.63,404.29c-.82-.74-2.72-1.16-3.93-1.87l.14,1.88C1128.89,404.16,1130.28,403.44,1131.63,404.29Z"/><path class="cls-1" d="M1127.7,402.42l-.29-2.82C1126.16,401,1126.67,401.82,1127.7,402.42Z"/><polygon class="cls-1" points="1116.14 404.76 1117.01 409.87 1116.51 404.23 1116.14 404.76"/><polygon class="cls-1" points="1136.47 397.55 1137.88 399.98 1135.93 396.03 1136.47 397.55"/><path class="cls-1" d="M1139.09,392.69c1.26,1.88,3.66.81,4.22,2.31.53-1.47-.36-3.54-1.14-5.35C1142.31,391.16,1141.46,392.19,1139.09,392.69Z"/><path class="cls-1" d="M1141.15,386.8a14.06,14.06,0,0,0,1,2.85A6.71,6.71,0,0,0,1141.15,386.8Z"/><path class="cls-1" d="M1129.92,397c.63.24,2.23,1,3.52.37l-3-1Z"/><path class="cls-1" d="M1130.34,396.27l.1,0c.58-.69,1-1.18,1.16-1.38Z"/><path class="cls-1" d="M1129.79,397.12l.13-.16C1129.63,396.86,1129.52,396.84,1129.79,397.12Z"/><path class="cls-1" d="M1121.64,402.18c-.62-2-.59-5.08-4.13-4.71C1118.66,399.4,1120.69,399.18,1121.64,402.18Z"/><path class="cls-1" d="M1126.07,395.79l-1.84,1.4c.68.43,1.87.79,2.21,1.78Z"/><polygon class="cls-1" points="1125.89 394.35 1126.07 395.79 1126.75 395.26 1125.89 394.35"/><path class="cls-1" d="M1136.71,388.66A4.26,4.26,0,0,1,1137,385a9.19,9.19,0,0,0-2.76,2.84C1134.9,388.51,1136.09,389.91,1136.71,388.66Z"/><path class="cls-1" d="M1133.41,392.25l0-.28C1133.1,391.94,1133,392,1133.41,392.25Z"/><path class="cls-1" d="M1142.72,374.79l-.58-.09.45.28Z"/><path class="cls-1" d="M1133.59,387.75c-1,.49-.69,1.36-.19,2.33a6.18,6.18,0,0,1,.79-2.21C1133.86,387.57,1133.63,387.41,1133.59,387.75Z"/><path class="cls-1" d="M1141.62,383.21a11.63,11.63,0,0,0-2.32.61C1140.39,383.88,1142.21,383.76,1141.62,383.21Z"/><path class="cls-1" d="M1134.27,392.16a.65.65,0,0,1,0,.19C1135,392.44,1134.74,392.3,1134.27,392.16Z"/><path class="cls-1" d="M1134.27,392.16a7.63,7.63,0,0,0-.87-2.08,5,5,0,0,0,0,1.89A4.76,4.76,0,0,1,1134.27,392.16Z"/><path class="cls-1" d="M1126.79,362.83c2.45,1.38,3.78,4.73.11,5.08.93,2.72,9.72,6,15.24,6.79-1.06-.63-2.06-1.17-2.59-3.87-1.68,0-5.39,2.55-6.81-.23,0-3.13,1.92-1.56,3.87-2.11-3.65-.57-3-5.45-7.95-7.16l.59,2.91C1128.51,363.92,1127.74,362.58,1126.79,362.83Z"/><path class="cls-1" d="M1139.88,378.25l-.13,1c.93-.67,2.27-.77,4.89-.94a4.88,4.88,0,0,0-2.05-3.29l-2.49,3.74Z"/><path class="cls-1" d="M1137.76,382.77c-2.28-2.15-2.39-4.64-5.92-5.16-1.12,2.31,1.31,2.84,1.66,4.86,1.51-4,.86,1.92,3.93.15A6,6,0,0,1,1137,385a11.58,11.58,0,0,1,2.35-1.21h-.21v0l0,0c-.42,0-.66-.09-.36-.16,0,0,0-.11,0-.11a7.14,7.14,0,0,1-.91-.75c1.19-.76.79.23.91.75l.36.27h0c.27-1.52.47-3.06.66-4.6C1138.93,379.8,1138.5,380.86,1137.76,382.77Z"/><path class="cls-1" d="M1113.49,391.81a1.79,1.79,0,0,1,.65.31C1114,391.69,1113.83,391.46,1113.49,391.81Z"/><path class="cls-1" d="M1115.94,391.55c.18.49,1,1.41.23,2-1.23.12-1.18-.87-2-1.44.33.94.56,2.92,2.87,2.36l-.17-.48c1.79-.71,6.16-.26,6.34.21A34.94,34.94,0,0,0,1115.94,391.55Z"/><path class="cls-1" d="M1126.26,387l.6-3.7-3.2,0,1.4.79C1123.48,385.44,1125.36,386.15,1126.26,387Z"/><polygon class="cls-1" points="1144.26 375.13 1146.93 377.06 1143.79 373.08 1144.26 375.13"/><polygon class="cls-1" points="1146.01 370.75 1148.47 372.15 1147.5 370.28 1146.01 370.75"/><path class="cls-1" d="M1111.11,130.33l-1-.72A2.81,2.81,0,0,0,1111.11,130.33Z"/><path class="cls-1" d="M1112.72,137.12l1.39-.19C1113.28,136.81,1112.71,136.83,1112.72,137.12Z"/><path class="cls-1" d="M1168.63,260.17c2.61-1.53,6.67-3.34,3.49-3.08l-3.08.54A2,2,0,0,1,1168.63,260.17Z"/><path class="cls-1" d="M1141.87,188.91l-.85.59,3.09.37Z"/><path class="cls-1" d="M1129.09,190.44l1.61-2.18A7.31,7.31,0,0,0,1129.09,190.44Z"/><path class="cls-1" d="M1142.31,145.6l2.94,1.77C1145.5,145.38,1143.81,146,1142.31,145.6Z"/><path class="cls-1" d="M1161.08,325.4a5.81,5.81,0,0,0,2.57-2.79C1161.63,323.8,1158.68,324.39,1161.08,325.4Z"/><path class="cls-1" d="M1143.6,124.48a2.45,2.45,0,0,0-2-.32A2,2,0,0,0,1143.6,124.48Z"/><path class="cls-1" d="M1164.39,318.85a9.59,9.59,0,0,0-.85.54,4.8,4.8,0,0,1,.11,3.22C1165.17,321.75,1166.24,320.57,1164.39,318.85Z"/><path class="cls-1" d="M1065.47,274.4a4.44,4.44,0,0,1-.49-.07C1065.21,274.68,1065.34,274.6,1065.47,274.4Z"/><path class="cls-1" d="M1014.51,268.6a7.52,7.52,0,0,1,1.29-.78C1015.48,267.76,1015.08,268,1014.51,268.6Z"/><path class="cls-1" d="M1154.87,354c-.17,1,.26.28,0,0Z"/><path class="cls-1" d="M1141.71,353.79a3.22,3.22,0,0,0-1.26-.92A4.12,4.12,0,0,1,1141.71,353.79Z"/><path class="cls-1" d="M1147.25,306l0-.07C1146.64,306.13,1146.76,306.11,1147.25,306Z"/><path class="cls-1" d="M1153,354.84a4.51,4.51,0,0,0,1.33-.85A5.07,5.07,0,0,0,1153,354.84Z"/><path class="cls-1" d="M1154.44,355.18l-.61.7C1154.26,356.19,1154.6,356.21,1154.44,355.18Z"/><path class="cls-1" d="M1155.19,352.58a3.21,3.21,0,0,1-.86,1.41c.27-.11.46-.12.54,0C1154.94,353.66,1155,353.25,1155.19,352.58Z"/><path class="cls-1" d="M1109.82,207.74a3.29,3.29,0,0,1-.36,0C1110.14,209.24,1110.16,208.77,1109.82,207.74Z"/><path class="cls-1" d="M1135.31,238s.12.05.16.09l.09-.14Z"/><path class="cls-1" d="M1132.68,235.12c4,1,3.59,1.78,2.88,2.86l8.79-1.85Z"/><path class="cls-1" d="M1142.18,121.64l2.89-2.47c4.45,3.24,2.76,5.54,6.79,3.21-5.9-.48-4.81-4.11-5.26-7L1103.37,121c.79,1.51,2.09,2.58,5.78,1.71l-1.58,2c0-.44-.59-.35-.61-.79-3.72,4,7.34.26,7,4.27-.37,1.47-1.49,2.72-2.84,2.15l3.08,2.21c0,.87-1.64,1.1-1.68.24l1.88,4.1-.28.05a32.1,32.1,0,0,1,5.42,1.44c-1,1.45-1.14-.29-2.23.3l2.9,1.79c-2.18,1.61-5.06.25-5.14-1.48-8.78,4.68,2.88,1.36-1.33,7.59l-1.78-1.94c-4.94,2.83-2.56,4.08-5.25,7.44,1.58-1,7.09-7.21,10.08-5.24-.52.91-.62,2,1.63,2.87-3.34.86-2.18,2-1.56,3.66l-4.46,1c1.74,1.5,4,.8,6.23,1.38.08,2.16-3.25,3.43-6,4.63.1,3.44,5-3.62,6.74.05-1,3.14,1.22,4.6,4.66,7.25-1.08,2.28-2.8.31-3.91,1.29l4,.87c0,.43-1.11.55-1.68.61,1.72,1.11,4.48-.91,6.22,1.07,5.05-.49-6.16,6.24,0,7.79-1.12,1-2.81.26-4.49.84,4.49,3,3.39,2.69,9,4.81l-2.41,3.3c3-2.66,7.45-1,11.17.65,1.48-1,2.78-1.92,3.38-2.47l3.12,3.14c-.65.58-2.27.51-4.26.29l1.21.45c-1.41,1.61-4.13,1.44-6.81,1l2.51-1.83c-2.9-.35-6.07-.57-8.66.14a2.67,2.67,0,0,1,1.44.92,4,4,0,0,0-1.9.1c-.45.21.61.38,1.87.73l-4.84,1.78,2-.19-2.23,5.18c5.66,2.33,13.54,3.93,16.54,9-3.91-.72-6.07.7-10.45,1.33,4.38-2.19-2.66-3.74-2.18-6.59-.24,1.5-2.37,1.54-3.16,1.31l5,4.11c-3.59.48-2.5,1.47-3.77,3,6.92-2.08,5.33,2.86,7.73,4.53-2.36.47-4.85.35-4.61-2.13-5,3.43,8.79,2.2,4.62,5.49-.14-.58.18-.95-1.06-1,2.31,1.08,1.1,4.69-1.08,4.16l-.14-.57c-.19,4,1.33,11.84,7.46,11.85-.78.11-7.34.22-8.59.11,7,1.61,14.07,3.34,21.07,5.21-5.25-.17-17.43,3.21-20.65.24-.62,1-1.44,2.18.52,4,.7-.68,7.42-2.17,8-1.33-5.64,2.84-3,1.92-7.75,5.17,1.06-1,9.29-.5,9.13,1.06-1.24-.16-8,.6-8.94.1l8.27,3.32c-1.51-.88-6.81.18-9,1.1,1.59-.45,0,3.2.77,4.15l1.83-1.63c-1.12,4.2,11.38,3.85,11.06,8.2-1.68-.52-10.24-1.15-11.21,1,4.19.89,19.81,4.34,22.85,8.48l-2.37.7,2.59,3.12c-6.13-2.2-19-7.59-24-10.19-1.9,1.55-2.78.42-2.63,2.73a2.6,2.6,0,0,1-3.42-1.95l-1.57,5.26c4.81-.13,4.71,4.21,8.71,4.18l-4.82-6c4.8-.2,13.54,3.72,12.59,7.72-1.94.91-8.53-1.14-10.13-1.11,1.67.56,3,3.8,1.79,4.08l-2.43-1.76c-2,2,6.07,3.87,1.3,6.11-.38.87-6.37,2.09-3.55,2.49,5.57-.92,22.49.12,26.51,1.53-.42.33-5.57,4.57-8.44,5.3-4.45,1-9.91-3.36-13.72-2.47a7.89,7.89,0,0,1,3.27,1.57c-1.24.8-4-.84-3.67,1.23,4.79.91-1,4,3.95,1.45,1.11,2.17-1.28,2-1.39,4.34,3.22-.32,10.31,3.67,11.39,6a10.42,10.42,0,0,0-3.62,0c-1.22,4.13-3.87,5.93-4.66,9.76-1.23.12-3,1.64-4.88.41.73.72,2.26,1.59,2.12,2.79-4.64,1.28-.06-2.73-5.39-2.16,2.8.79,3.06,3.83,4.34,5.92,4.33.55,1.93-3.63.45-5.69,5.94,1.3,11.41,5.68,12.93,10.6.55,3.73-4.15.43-3.48,1.23-2.66,5.83,8.75,8.32,2.88,12.25-4.32.85-7.29-2.3-10.07-2.71-.58-3,3.68-3.22,4-5.09l-2.38,1.66c-.91-1.19-1.42-3.21-.08-3.85-3.62.7-3.71,9.9-8.41,13.24.92,1.24,1.66,3.11,3.34,3l0-1.63c3.39-.24,3,4.26,5,2.93,1.3,2.74,3.51,6.26.76,8.39l-4.24-1.2c1.2.45,3.14-.78,2.23-2.07,1.32,1.95-7.18,1.84-2.52,5.36l3.65-.69c1.13,2.81,4.25,7.26,1.83,9.16,4.46.73-.19-.76,5.22-.42-6.42-1.08,3.18-6.36-4-6.55,6.24.53,3.62-2.18,9.28-2.74-1.37-.46-2.92-.17-1.37-2.07a6.92,6.92,0,0,1-1-.94l.16-.1-.21.05c-.16-.17-.2-.2-.07,0a5,5,0,0,1-2.49.28c-2.61-2.28-1.25-5.6-2.46-7.34,1.11-1,1.36,1.1,3.06.94l-1.78-2.59c3.07.94,6.27-1.64,6.93,2l1.11-2.72c2.24-1.07,3.67-3.16,2.83-5,1.14-1.13-2.43-4.38-.33-2.5l-.72-5,.78.18c1.54-4.33-2.64-10.1,3.89-13.88-.5-1.65-1.17-3.36.22-5.66l2.83,0c-.53-2.07,3.83-5.33,1-6.62,7.66-1,2.94-9.24,4.64-12.45l-3.6-.51c.4-2.31-.45-4.65-1.67-7.63l-3.21-.07c-2.46-2.61,2.87-6.13,2.56-10.07,1.22.32.87,1.3.11,2,7.34-4.44-5-9.92.32-14-1.18-1-.8-1.79,0-2.53a.39.39,0,0,0,.17.26,1.16,1.16,0,0,0,0-.43c.54-.47,1.17-.95,1.67-1.48a6.73,6.73,0,0,0-1.69,1.25,7.2,7.2,0,0,0-1.33-3.2l3.43-.59c0-.1,0-.18-.11-.28,1.25-1.21-1.65-.9-4.22-.21a7.2,7.2,0,0,0-2.11-1.51c5.53-1.13-1.94-3,4-4.57-2.92-.67-2.55-5.86-8.65-6.1.79-.09,1.14-.45,1.23.17.61-1.34,1.21-2.7-.57-3.74l4.32-.87-6.05-2.39c2.55-1.93,4-2.8,7.51-1.36-5.57-3.7-2.29-3.22-7.76-6.21l2.84-.12c-.24-1.25-4.22-2.83-2-3.83,5.14-3.46-1-13.86,2.8-21.76-8,2.72,3.12-3.92-3.29-3.15,1.87-.74,2.79-1.93,4.68-1.06-2.53-3.31,2.16-6.07-3.66-7.6,1.86-.77,3,.25,4.06-.33-.47-.21-1.91-.84-.82-1.43s1.73.23,2.68.65c-1.05-3.68-7.09-2.9-12.73-2.09,2.28-2.36,1.72-3.23-2.2-3.83,1.7-1,3.4-2.48,4.5-.33,0-1.34,1.12-8.41-3.41-7.57,1-.64-.06-1.85-.65-2.07-.36-2.91,0-3.25-1.05-6l-.56.94c-5.62.1-1.69-2.05-2.85-4.15l.56-.07c2.65-6-2.38-1.77.83-7.88l-3.27,1.07c-7.28,1.25,3.18-5.5-.29-7.78l-1.64,1.53c-2.84-1,8.6-6.88,9.08-8.73.54-.51,1.14.3,1.73.68,3.14-5.3-4.5.55-6.3-2.34,2.2-1.18,6.16-.77,6-3,1.64-1.56-9.17-4.17-5.45-8.2-1.64,1.1-3.27,2.2-5,1.11-1.23-2,5.23-7.82-1-8.31a3,3,0,0,1,1.3-.78c-1.92-1.3-3.92-4.84-7.27-5,5.72-2.42,3.22-4.76,1-6.83l-55-51.07,33.24,53.92c1.38,2.24,2.62,4.32-2.62,4.13l.35,5-1.1-.2c-.86,3.09,1.74,4.41,4.15,5.79-.83.67-1.77,0-2.34-.08-2.78,4.44-2.36,4.8,2.53,9.55l-3.56-.12c2,1.48-6.64,5.65-3.5,10.89a3.51,3.51,0,0,1-1.45-.83c3.21,6.19-12.54,9.1-.56,14.51l2.1,4.28c2.19-4.07,5.14,2.35,7.7,1.18.28,2.06-5.26,3.26-5.08,1l.74-.13c-6.12-2.85-4.2,4.56-8.47,2.91a35.52,35.52,0,0,1-6.27,11.34c-2.55,3.48-5.07,6.81-7.21,10.22l5.08,1.58-1.63,2.4c-1.43.09-4.06-1.07-2.93-2.73-3.1-.48.59,4.15,1.55,4.78-3.72,2.46-4.6-4.33-5.29-3.31l-.42,1.62.71,0c1.21,2.19,3.2,3.48,1.7,5.44-1.72.77-3.19-1-3.68-.58-.32-.19-.57-.11-.62.7l-2.26,2.74,4.25,1c.87,2.43-2,2.76,2.84,3.85-7.18-1.67-9.75,9.73-12.53,9.62,1.09,3.62-.29,5.43-2.41,7.24,1.1,0,5,2.64,2.94,4.14-6.76-6.82-6,.67-12.39-2.49,4.59,1.88-3.61,5.6,2.89,8.1-2,.87-2.69-2.38-5.36-2.89-.63,5.92-8.76,5.5-12.22,9.87.74,1,2.72,1.85,3,4.08l-6.28-2.89c-.45,1.16,3.79,6.39-.55,4.19.88.67,2.22,1.66,1.85,2.42-6.45.79-10,5.33-14.78,8.56-4.44,3.62-10,6-17.13,3.05,2.3,1.59,1.52,2.23.53,2.81.9.21,1.21,2.86,2,4.36-2.06-.76-4.15-1.8-6.14-2.72.87,4.71-4.51,2-3.53,6.44l1.15-1.29c-.25,5.77,6.63,10.2,8.81,16.69.1-6.49,9.93,6,10.3-3.92,1.44.86.2,2.35,1.31,3.57-.22-3.14.65-4.23,3.42-4.1l.07.77c5.91-3.45,9.52-2.77,17.37-5.08l-2.32-2.55c1.65-.49,2.56.26,3.66.5-1.22-5.27-4.1,2.23-5.71-3.46,5.77,4.82,9.35-6.46,15.26-1,2.11-1.48-3-2.69-.88-4.14l1.84,1.27-1.16-2.53c1.58-.65,3.84.82,5,2.19-.44.1-.57,1.15-.82,1.56,3.26.5,4.2-4.7,5.28-4.56l-2.73.62c2-3.07,5.18-5.33,7.88-8.07s5.08-5.76,5.86-9.59l-1.52-.74c1.37-5.55,4-1.79,6.63-6.84l.16.4a4.38,4.38,0,0,1,1-4.52c.54,2.26,4.52.31,4.93,3,1.11-6.18-.2-3.7-2.72-10.14l2.59,1c-1.2-2.42-2.15-3.26-1.12-5.81.52,3.12,4.29,1,5.23,4.78,8.24-1.34.21-10.21,8.61-7.78-4.73-6.23-6,1.95-6.57-.16-2.62-.33-3.4-4.87-1.87-5.92,1.07-1.39,9.53,2.48,11.92-1.59-.27.38.19.69-.09,1.07,2.54-.54-.31-4.15,3.29-4.55-3.29-3.24,1.54-2.34-3.25-5.37l-.85,4.35c-.13-2.88-4.91-8-.27-9.82a9.65,9.65,0,0,1,2,3.61c2-.23.06-2.46,2.14-2.71,4.86,2.91-1.33,5.09,1.21,9.47,2.7,0-1.26-6.32,3.51-2.24-6-5.33,3.08-3.68-.73-9.17l2.94,1.69c-.22-.67-1.23-2.32-.78-3.13l3.26,3.46c-2.32-4,5-3.19,4.22-6.37-2.06,4.85-4.2-.62-7.34.34-1.56-7.61,9.58.32,11.07-7,0,1.09-3.38,2.6-4.2.59a10.15,10.15,0,0,1,5-2.32c1-4.8-3.5-.59-4.74-3.26,4.41,0-.76-2.81-1.31-5.16l3.24,1.17c3.93-4.34-6.28-3.73-2.13-7.34l3.83,3.44-.31-2.77,3.55,1.73c-1.79-3.53-1-4.14.85-6.44-2.49-.09-5.89-2.14-5.35-4.41,2.4-1,2.9,1.77,3.34-1.6,1.88,1.29,4.25,2.86.79,3.41,1,.45,1.87,1.33,2.89,1.79,2.75-1.06,1.75-4.19,2.06-5.39a2.21,2.21,0,0,1-1.15,1.1l-3.29-5.94c1.42-.45,2.33.4,3.14,1.23-.09-1.06-1.54-2.12-1.52-3.61,2.66,1,5.49,1.55,6.34,4l-2.05-5.4c1.25,0,3.76-1.72,4.65-.9,2.13-2.38-3.93-7.45-1.28-10.53a2.62,2.62,0,0,1-1.28-1.52c1-3.14,4.83-5.71,1.49-10l5.28-1.75c-.85-3.18-6.54,2.42-8-2.8-1.43-3.67,4.33-1,5.79-2.21-2.44-2-7.44-5.28-3.21-8.44C1142.63,119.76,1141.85,120.6,1142.18,121.64Zm-25.35,25.11c-.86-.45-3.35-1.16-1.51-2.14C1119.33,144.35,1117.66,145.39,1116.83,146.75Zm19.5,48.35c-1.22-.27-.81-1.12.31-2.2C1137,193.46,1137.05,194.17,1136.33,195.1Zm19.54,147.63-.14-.13C1157.51,341.48,1156.83,341.86,1155.87,342.73Zm-2.45,2.69a1.54,1.54,0,0,0,1.3.63c-.74-.5-.57-1.24-.07-2C1153.71,344,1153,344.23,1153.42,345.42ZM1085,204.65H1086C1086.19,206.23,1085.61,205.46,1085,204.65Z"/><path class="cls-1" d="M1130.58,190.28a8.15,8.15,0,0,1,1.78-.64A1.67,1.67,0,0,0,1130.58,190.28Z"/><path class="cls-1" d="M1141.76,145.28s0,.07,0,.11a3,3,0,0,0,.6.21Z"/><path class="cls-1" d="M1135.4,292.38a4,4,0,0,1,1.92-.95A1.59,1.59,0,0,0,1135.4,292.38Z"/><path class="cls-1" d="M1152.31,364.15l.07-2.35c-.27,1-1.12,1.07-1.84,1.34C1151.3,363.42,1152.54,363.51,1152.31,364.15Z"/><path class="cls-1" d="M1125.2,370.84c.23.46-.25.56,0,1l1.43.71C1127.13,371.42,1126.4,370.05,1125.2,370.84Z"/><path class="cls-1" d="M1141,361.26c-2.7-1-2.34.53-2.45,2.07a.49.49,0,0,1,.11-.23C1142.19,365.22,1141.63,363.22,1141,361.26Z"/><path class="cls-1" d="M1138.54,363.68a2,2,0,0,1-.51,1.23C1139.41,365.76,1138.59,364.57,1138.54,363.68Z"/><path class="cls-1" d="M1153.77,350c-.94.41,3.32,1.71,2.07,1.68C1159,353.74,1153.3,345.69,1153.77,350Z"/><polygon class="cls-1" points="1131.89 358.34 1135.34 359.38 1133.04 357.47 1131.89 358.34"/><path class="cls-1" d="M1138.63,349.27l-1.77,1.7a1.35,1.35,0,0,1,.91,1C1138.4,350.75,1139.64,349.61,1138.63,349.27Z"/><path class="cls-1" d="M1137.77,352a1.8,1.8,0,0,0-.14,1.9A3.86,3.86,0,0,0,1137.77,352Z"/><polygon class="cls-1" points="1132.15 355.15 1133.1 354.86 1133.97 353.54 1132.15 355.15"/><path class="cls-1" d="M1146.66,326.55l-.36-2.62c-1.13-.53-2-.08-1.78.91C1145.2,325.61,1145.42,326.61,1146.66,326.55Z"/><path class="cls-1" d="M1135.36,330.89a6.82,6.82,0,0,1,2.87-.23l-4.23-1.32Z"/><path class="cls-1" d="M1136.12,324c-1.13-.55-2.56-4.11-3-1.23C1134.2,323.33,1134.59,325.84,1136.12,324Z"/><polygon class="cls-1" points="1147.84 290.05 1147.85 290.66 1155.1 291.29 1147.84 290.05"/><path class="cls-1" d="M1131.51,258.67c-1.69,2.71,4.5.56,2.38,3,1.73.62,1.73-2,3.23-1.4C1135.27,258.69,1136.27,257.82,1131.51,258.67Z"/><path class="cls-1" d="M1137.12,260.3a7.23,7.23,0,0,0,1.12.83A3.73,3.73,0,0,0,1137.12,260.3Z"/><polygon class="cls-1" points="1007.55 266.98 1005.58 266.09 1007.33 268.05 1007.55 266.98"/><path class="cls-1" d="M1006.35,273.17l-1.77-4.28.34,4.34C1005.21,272.9,1005.76,272.27,1006.35,273.17Z"/><path class="cls-1" d="M1109,153.93l1.11-.14a1.56,1.56,0,0,0,1.06-1.87Z"/><polygon class="cls-1" points="1106.13 129.29 1106.15 129.73 1109.99 127.87 1106.13 129.29"/><path class="cls-1" d="M1150.82,129.34c.22-1-.66-2.19-.43-3.16C1151,128.38,1145.59,129.22,1150.82,129.34Z"/><path class="cls-2" d="M659.49,1269.24c-39.89-.33-68.71-10.16-76.54-59.71L548.64,687.08c-3.65-61.86,8.69-56.29-53.18-60.9-104.52-6.36-196.72-3-201.46-100.59-1-50.84-3.57-66-3.34-93.45s9.86-28.79,63.51-28.36l485.6,3.93,92.2-.63c68.78.56,89.34,10.31,90.1,84.55l-.61,74.21c-.69,85.18-25.57,101.47-72.33,101.09l-13.77-.1c-16.52-1.49-144.31-19-153.94-19.11l-4.53,560.62c-.36,46.73-.46,57.73-25.25,60.27L711.73,1271Z"/><path class="cls-3" d="M711.17,1245.31c-39.87-.32-68.68-10.16-76.54-59.71L600.31,663.16c-3.62-61.87,8.7-56.27-53.14-60.9-104.55-6.34-196.73-2.94-201.46-100.57-1-50.87-3.58-66-3.35-93.44s9.86-28.8,63.51-28.37l485.6,3.91,92.18-.64c68.78.56,89.33,10.34,90.12,84.55l-.61,74.21c-.68,85.18-25.57,101.48-72.33,101.12l-13.76-.12c-16.53-1.5-144.34-19-154-19.11l-4.51,560.61c-.38,46.74-.46,57.74-25.24,60.27l-39.92,2.46Z"/></svg>